<svg width="102" height="28" viewBox="0 0 102 28" fill="none" xmlns="http://www.w3.org/2000/svg">
<path d="M28.0022 21.2242C28.0022 22.6192 27.6036 24.0142 26.7068 25.3096C25.7104 26.605 24.5147 27.4021 22.9203 27.8007C22.2228 28 21.625 28 20.9275 28C19.6321 27.9003 18.4363 27.6014 17.4399 27.0035C16.1445 26.2064 15.3474 25.0106 14.8491 23.516C14.6499 22.9181 14.5502 22.3202 14.5502 21.7224C14.5502 21.1245 14.4506 20.5267 14.4506 20.0284C14.3509 18.8327 14.052 17.637 13.2548 16.6405C12.5573 15.6441 11.5609 14.8469 10.3651 14.3487C9.56798 13.9501 8.67118 13.8505 7.77438 13.6512C6.97723 13.5515 6.18007 13.4519 5.48256 13.153C3.98789 12.7544 2.69252 11.9572 1.59643 10.7615C0.79927 9.8647 0.301048 8.86826 0.101759 7.67252C-0.0975301 6.47679 0.101759 5.28106 0.599981 4.18497C1.0982 3.08888 1.79571 2.19208 2.69252 1.49457C3.58932 0.797061 4.6854 0.298839 5.78149 0.199195C6.67829 -9.40301e-05 7.67474 -9.40301e-05 8.57154 0.298839C10.1659 0.697417 11.3616 1.59422 12.2584 2.98924C12.8563 3.98568 13.2548 5.08177 13.4541 6.17786C13.5538 6.67608 13.5538 7.1743 13.6534 7.57288C13.8527 8.66897 14.052 9.66541 14.6499 10.6619C15.3474 12.0569 16.5431 13.153 18.0378 13.7508C18.7353 14.0498 19.5324 14.2491 20.2299 14.3487C21.5253 14.548 22.7211 14.8469 23.9168 15.3451C24.7139 15.6441 25.4115 16.1423 26.109 16.6405C26.9061 17.338 27.504 18.2348 27.8029 19.3309C27.9026 19.9288 28.0022 20.5267 28.0022 21.2242Z" fill="#F1626F"/>
<path d="M27.5793 5.97866C27.5793 9.04863 25.0906 11.5373 22.0207 11.5373C18.9507 11.5373 16.462 9.04863 16.462 5.97866C16.462 2.9087 18.9507 0.420003 22.0207 0.420003C25.0906 0.420003 27.5793 2.9087 27.5793 5.97866Z" fill="#F1626F" stroke="#F1626F" stroke-width="0.840006"/>
<path d="M11.5373 22.0214C11.5373 25.0914 9.04863 27.58 5.97867 27.58C2.9087 27.58 0.420003 25.0914 0.420003 22.0214C0.420003 18.9514 2.9087 16.4627 5.97867 16.4627C9.04863 16.4627 11.5373 18.9514 11.5373 22.0214Z" fill="#F1626F" stroke="#F1626F" stroke-width="0.840006"/>
<path d="M53.8728 25.9203H49.7683V12.3842C49.7683 7.49373 48.0217 5.0485 44.5285 5.0485C42.6946 5.0485 41.21 5.74714 40.0747 7.14441C38.9394 8.54169 38.3281 10.2883 38.3281 12.3842V25.9203H34.2236V2.16662H38.3281V6.09646H38.4155C40.162 3.12724 42.6946 1.64264 46.0131 1.64264C48.5457 1.64264 50.4669 2.51594 51.8642 4.1752C53.1742 5.83447 53.8728 8.2797 53.8728 11.5109V25.9203Z" fill="#AABFF2"/>
<path d="M78.1503 24.7853C76.4038 25.8332 74.2205 26.4445 71.688 26.4445C68.3694 26.4445 65.6622 25.3092 63.5663 23.126C61.5577 20.9427 60.5098 18.0609 60.5098 14.5677C60.5098 10.6378 61.6451 7.49397 63.8283 5.13606C66.0115 2.77816 68.9807 1.55554 72.6486 1.55554C74.7445 1.55554 76.5784 1.90486 78.1503 2.69083V6.88266C76.4911 5.66004 74.6572 5.04873 72.6486 5.04873C70.2907 5.04873 68.3694 5.92203 66.8848 7.5813C65.4002 9.24056 64.7016 11.5111 64.7016 14.2184C64.7016 16.9256 65.4002 19.1088 66.7975 20.6808C68.1948 22.2527 70.0287 23.0387 72.4739 23.0387C74.4825 23.0387 76.4038 22.34 78.1503 21.0301V24.7853Z" fill="#AABFF2"/>
<path d="M101.031 24.7853C99.2846 25.8332 97.1014 26.4445 94.5688 26.4445C91.2503 26.4445 88.5431 25.3092 86.4472 23.126C84.4386 20.9427 83.3906 18.0609 83.3906 14.5677C83.3906 10.6378 84.5259 7.49397 86.7091 5.13606C88.8924 2.77816 91.8616 1.55554 95.5294 1.55554C97.6253 1.55554 99.4593 1.90486 101.031 2.69083V6.88266C99.3719 5.66004 97.538 5.04873 95.5294 5.04873C93.1715 5.04873 91.2503 5.92203 89.7657 7.5813C88.2811 9.24056 87.5824 11.5111 87.5824 14.2184C87.5824 16.9256 88.2811 19.1088 89.6784 20.6808C91.0756 22.2527 92.9095 23.0387 95.3548 23.0387C97.3634 23.0387 99.2846 22.34 101.031 21.0301V24.7853Z" fill="#AABFF2"/>
</svg>
