<svg width="102" height="28" fill="none" xmlns="http://www.w3.org/2000/svg"><path d="M28.002 21.224c0 1.395-.398 2.79-1.295 4.086-.997 1.295-2.192 2.092-3.787 2.49-.697.2-1.295.2-1.993.2-1.295-.1-2.49-.399-3.487-.997-1.296-.797-2.093-1.992-2.59-3.487a5.645 5.645 0 0 1-.3-1.794c0-.598-.1-1.195-.1-1.694-.1-1.195-.398-2.391-1.195-3.387-.698-.997-1.694-1.794-2.89-2.292-.797-.399-1.694-.498-2.59-.698-.798-.1-1.595-.2-2.292-.498-1.495-.399-2.79-1.196-3.887-2.392C.8 9.865.301 8.868.102 7.673c-.2-1.196 0-2.392.498-3.488s1.196-1.993 2.093-2.69C3.589.797 4.685.299 5.78.199c.897-.2 1.894-.2 2.79.1 1.595.398 2.79 1.295 3.687 2.69a9.545 9.545 0 0 1 1.196 3.189c.1.498.1.996.2 1.395.199 1.096.398 2.092.996 3.089a6.432 6.432 0 0 0 3.388 3.089 8.98 8.98 0 0 0 2.192.598c1.295.199 2.491.498 3.687.996.797.3 1.494.797 2.192 1.295a5.432 5.432 0 0 1 1.694 2.69c.1.599.2 1.197.2 1.894Z" fill="#F1626F"/><path d="M27.58 5.979a5.559 5.559 0 1 1-11.118 0 5.559 5.559 0 0 1 11.117 0ZM11.537 22.021a5.559 5.559 0 1 1-11.117 0 5.559 5.559 0 0 1 11.117 0Z" fill="#F1626F" stroke="#F1626F" stroke-width=".84"/><path d="M53.873 25.92h-4.105V12.384c0-4.89-1.746-7.336-5.24-7.336-1.833 0-3.318.7-4.453 2.096-1.136 1.398-1.747 3.144-1.747 5.24V25.92h-4.104V2.167h4.104v3.93h.087c1.747-2.97 4.28-4.454 7.598-4.454 2.533 0 4.454.873 5.851 2.532 1.31 1.66 2.009 4.105 2.009 7.336v14.41ZM78.15 24.785c-1.746 1.048-3.93 1.66-6.462 1.66-3.319 0-6.026-1.136-8.122-3.319-2.008-2.183-3.056-5.065-3.056-8.558 0-3.93 1.135-7.074 3.318-9.432 2.183-2.358 5.153-3.58 8.82-3.58 2.097 0 3.93.349 5.502 1.135v4.192c-1.659-1.223-3.493-1.834-5.501-1.834-2.358 0-4.28.873-5.764 2.532-1.485 1.66-2.183 3.93-2.183 6.637 0 2.708.698 4.89 2.096 6.463 1.397 1.572 3.23 2.358 5.676 2.358 2.008 0 3.93-.699 5.676-2.009v3.755ZM101.031 24.785c-1.746 1.048-3.93 1.66-6.462 1.66-3.319 0-6.026-1.136-8.122-3.319-2.008-2.183-3.056-5.065-3.056-8.558 0-3.93 1.135-7.074 3.318-9.432 2.183-2.358 5.153-3.58 8.82-3.58 2.096 0 3.93.349 5.502 1.135v4.192c-1.66-1.223-3.493-1.834-5.502-1.834-2.358 0-4.279.873-5.763 2.532-1.485 1.66-2.184 3.93-2.184 6.637 0 2.708.7 4.89 2.096 6.463 1.398 1.572 3.231 2.358 5.677 2.358 2.008 0 3.93-.699 5.676-2.009v3.755Z" fill="#AABFF2"/></svg>